<mxfile host="app.diagrams.net" modified="2024-05-10T11:13:56.486Z" agent="Mozilla/5.0 (Windows NT 10.0; Win64; x64) AppleWebKit/537.36 (KHTML, like Gecko) Chrome/124.0.0.0 Safari/537.36" etag="i0NN7_LlV4vzu2KsutX4" version="24.3.1" type="github">
  <diagram name="第 1 页" id="eUOA2_E5vbVqzMmmH4eD">
    <mxGraphModel dx="1114" dy="592" grid="1" gridSize="10" guides="1" tooltips="1" connect="1" arrows="1" fold="1" page="1" pageScale="1" pageWidth="827" pageHeight="1169" math="0" shadow="0">
      <root>
        <mxCell id="0" />
        <mxCell id="1" parent="0" />
        <mxCell id="8qRHs25ue9ifPd7oDOV4-1" value="火" style="ellipse;whiteSpace=wrap;html=1;aspect=fixed;fontSize=15;fillColor=#dae8fc;strokeColor=#6c8ebf;fontStyle=1" vertex="1" parent="1">
          <mxGeometry x="350" y="80" width="40" height="40" as="geometry" />
        </mxCell>
        <mxCell id="8qRHs25ue9ifPd7oDOV4-2" value="木" style="ellipse;whiteSpace=wrap;html=1;aspect=fixed;fontSize=15;fillColor=#dae8fc;strokeColor=#6c8ebf;fontStyle=1" vertex="1" parent="1">
          <mxGeometry x="240" y="190" width="40" height="40" as="geometry" />
        </mxCell>
        <mxCell id="8qRHs25ue9ifPd7oDOV4-3" value="水" style="ellipse;whiteSpace=wrap;html=1;aspect=fixed;fontSize=15;fillColor=#dae8fc;strokeColor=#6c8ebf;fontStyle=1" vertex="1" parent="1">
          <mxGeometry x="350" y="290" width="40" height="40" as="geometry" />
        </mxCell>
        <mxCell id="8qRHs25ue9ifPd7oDOV4-4" value="金" style="ellipse;whiteSpace=wrap;html=1;aspect=fixed;fontSize=15;fillColor=#dae8fc;strokeColor=#6c8ebf;fontStyle=1" vertex="1" parent="1">
          <mxGeometry x="460" y="190" width="40" height="40" as="geometry" />
        </mxCell>
        <mxCell id="8qRHs25ue9ifPd7oDOV4-6" value="舍" style="ellipse;whiteSpace=wrap;html=1;aspect=fixed;fontSize=15;fillColor=#e1d5e7;strokeColor=#9673a6;" vertex="1" parent="1">
          <mxGeometry x="355" y="130" width="30" height="30" as="geometry" />
        </mxCell>
        <mxCell id="8qRHs25ue9ifPd7oDOV4-7" value="土" style="text;html=1;align=center;verticalAlign=middle;whiteSpace=wrap;rounded=0;fontSize=18;fontStyle=1" vertex="1" parent="1">
          <mxGeometry x="340" y="195" width="60" height="30" as="geometry" />
        </mxCell>
        <mxCell id="8qRHs25ue9ifPd7oDOV4-8" value="传" style="ellipse;whiteSpace=wrap;html=1;aspect=fixed;fontSize=15;fillColor=#e1d5e7;strokeColor=#9673a6;" vertex="1" parent="1">
          <mxGeometry x="350" y="250" width="30" height="30" as="geometry" />
        </mxCell>
        <mxCell id="8qRHs25ue9ifPd7oDOV4-9" value="受" style="ellipse;whiteSpace=wrap;html=1;aspect=fixed;fontSize=15;fillColor=#e1d5e7;strokeColor=#9673a6;" vertex="1" parent="1">
          <mxGeometry x="414" y="195" width="30" height="30" as="geometry" />
        </mxCell>
        <mxCell id="8qRHs25ue9ifPd7oDOV4-10" value="死" style="ellipse;whiteSpace=wrap;html=1;aspect=fixed;fontSize=15;fillColor=#e1d5e7;strokeColor=#9673a6;" vertex="1" parent="1">
          <mxGeometry x="290" y="195" width="30" height="30" as="geometry" />
        </mxCell>
      </root>
    </mxGraphModel>
  </diagram>
</mxfile>
